<?xml version="1.0" ?>
<svg height="24" data-name="Capa 1" id="Capa_1" viewBox="0 0 20 19.84" xmlns="http://www.w3.org/2000/svg">
    <path fill="#ffffff"
        d="M15.6,3.89H4.4A2.35,2.35,0,0,0,2.05,6.24v.1A2.36,2.36,0,0,0,4.4,8.69s0,0,.06,0V14.3A1.66,1.66,0,0,0,6.12,16h7.77a1.65,1.65,0,0,0,1.65-1.65V8.67l.06,0A2.36,2.36,0,0,0,18,6.34v-.1A2.35,2.35,0,0,0,15.6,3.89ZM13.89,15.36H6.12A1.07,1.07,0,0,1,5.06,14.3V6.71H15V14.3A1.07,1.07,0,0,1,13.89,15.36Zm3.46-9A1.76,1.76,0,0,1,15.6,8.09l-.06,0V6.71h.63a.3.3,0,0,0,.3-.3.29.29,0,0,0-.3-.3H3.84a.3.3,0,0,0-.3.3.31.31,0,0,0,.3.3h.62v1.4l-.06,0A1.76,1.76,0,0,1,2.65,6.34v-.1A1.75,1.75,0,0,1,4.4,4.49H15.6a1.75,1.75,0,0,1,1.75,1.75Z" />
    <path fill="#ffffff"
        d="M11.39,10.44l-1,1.28V9.52A.32.32,0,0,0,10,9.19a.33.33,0,0,0-.33.33v2.27L8.45,10.54a.33.33,0,0,0-.47,0A.32.32,0,0,0,8,11l1.85,1.86a.34.34,0,0,0,.24.09h0a.3.3,0,0,0,.24-.12l1.59-2a.33.33,0,0,0-.52-.41Z" />
</svg>